<svg version="1.1" id="Layer_1" xmlns="http://www.w3.org/2000/svg" xmlns:xlink="http://www.w3.org/1999/xlink" x="0px" y="0px"
	 width="100%" viewBox="0 0 360 360" enable-background="new 0 0 360 360" xml:space="preserve">
<path fill="#000000" opacity="1.000000" stroke="none" 
	d="
M187.000000,1.000001 
	C244.964279,1.000000 302.928558,1.000000 360.946411,1.000000 
	C360.946411,120.890343 360.946411,240.780716 360.946411,361.000000 
	C302.312836,361.000000 243.625076,361.000000 184.145203,360.734497 
	C190.511902,356.223846 197.654602,351.951233 204.832809,347.739136 
	C221.090332,338.199310 237.308365,328.590149 253.651154,319.198334 
	C266.910156,311.578644 280.392029,304.346924 293.656281,296.736115 
	C306.627167,289.293610 319.352875,281.420258 332.389099,274.097229 
	C336.592102,271.736237 338.179047,268.553558 337.995422,264.170410 
	C337.816864,259.907837 337.114471,255.661301 337.045624,251.401199 
	C336.894623,242.057983 336.998871,232.710663 336.998871,223.365005 
	C336.998871,190.698761 336.969360,158.032440 337.037689,125.366333 
	C337.045868,121.453629 337.711487,117.546303 337.843842,113.628761 
	C337.980133,109.596077 337.326599,105.475044 337.936035,101.534554 
	C338.835754,95.717087 337.665894,89.596054 334.452057,87.752693 
	C324.946991,82.300850 315.428223,76.872650 305.946259,71.380844 
	C286.859741,60.326214 267.815918,49.197723 248.713470,38.170807 
	C230.669495,27.754900 212.540558,17.485714 194.533844,7.006214 
	C191.787567,5.407942 189.499817,3.021762 187.000000,1.000001 
z"/>
<path fill="#000000" opacity="1.000000" stroke="none" 
	d="
M175.000000,361.000000 
	C117.035995,361.000000 59.071999,361.000000 1.053998,361.000000 
	C1.053998,241.110504 1.053998,121.220970 1.053998,1.000000 
	C57.687130,1.000000 114.374908,1.000000 171.864838,1.255579 
	C172.213089,1.971034 171.834335,2.561686 171.294449,2.871954 
	C149.149506,15.598717 126.968613,28.262991 104.839401,41.016972 
	C87.640625,50.929340 70.486069,60.918858 53.346546,70.933464 
	C43.139233,76.897598 32.998981,82.976517 22.462860,89.230690 
	C22.064932,149.126511 22.029264,208.795486 22.034882,268.464447 
	C22.034964,269.321838 22.551088,270.179169 22.987135,271.357544 
	C30.117027,275.643463 37.123749,279.544037 44.045982,283.589203 
	C53.127785,288.896362 62.120010,294.356659 71.192833,299.679413 
	C81.567902,305.766113 91.959839,311.825317 102.398895,317.801361 
	C112.133438,323.374084 121.938423,328.823853 131.714355,334.324249 
	C137.067459,337.336151 142.437088,340.318878 147.776886,343.354126 
	C154.849060,347.374115 161.974884,351.308746 168.916000,355.544983 
	C171.202194,356.940247 172.986313,359.158203 175.000000,361.000000 
z"/>
<path fill="#FBB142" opacity="1.000000" stroke="none" 
	d="
M22.828587,89.003838 
	C32.998981,82.976517 43.139233,76.897598 53.346546,70.933464 
	C70.486069,60.918858 87.640625,50.929340 104.839401,41.016972 
	C126.968613,28.262991 149.149506,15.598717 171.294449,2.871954 
	C171.834335,2.561686 172.213089,1.971034 172.333496,1.255579 
	C176.689255,1.000000 181.378510,1.000000 186.533875,1.000001 
	C189.499817,3.021762 191.787567,5.407942 194.533844,7.006214 
	C212.540558,17.485714 230.669495,27.754900 248.713470,38.170807 
	C267.815918,49.197723 286.859741,60.326214 305.946259,71.380844 
	C315.428223,76.872650 324.946991,82.300850 334.452057,87.752693 
	C337.665894,89.596054 338.835754,95.717087 337.936035,101.534554 
	C337.326599,105.475044 337.980133,109.596077 337.843842,113.628761 
	C337.711487,117.546303 337.045868,121.453629 337.037689,125.366333 
	C336.969360,158.032440 336.998871,190.698761 336.998871,223.365005 
	C336.998871,232.710663 336.894623,242.057983 337.045624,251.401199 
	C337.114471,255.661301 337.816864,259.907837 337.995422,264.170410 
	C338.179047,268.553558 336.592102,271.736237 332.389099,274.097229 
	C319.352875,281.420258 306.627167,289.293610 293.656281,296.736115 
	C280.392029,304.346924 266.910156,311.578644 253.651154,319.198334 
	C237.308365,328.590149 221.090332,338.199310 204.832809,347.739136 
	C197.654602,351.951233 190.511902,356.223846 183.676544,360.734497 
	C181.299988,361.000000 178.599976,361.000000 175.449982,361.000000 
	C172.986313,359.158203 171.202194,356.940247 168.916000,355.544983 
	C161.974884,351.308746 154.849060,347.374115 147.776886,343.354126 
	C142.437088,340.318878 137.067459,337.336151 131.714355,334.324249 
	C121.938423,328.823853 112.133438,323.374084 102.398895,317.801361 
	C91.959839,311.825317 81.567902,305.766113 71.192833,299.679413 
	C62.120010,294.356659 53.127785,288.896362 44.045982,283.589203 
	C37.123749,279.544037 30.117027,275.643463 23.059879,270.891998 
	C22.977804,225.035828 22.997580,179.966232 22.982021,134.896622 
	C22.976742,119.599014 22.882290,104.301430 22.828587,89.003838 
M34.142040,264.465790 
	C34.311890,264.807892 34.585281,264.948120 35.514336,265.307007 
	C44.306229,270.418396 53.098263,275.529510 61.889954,280.641205 
	C70.110672,285.420929 78.318169,290.223602 86.554466,294.976318 
	C99.842636,302.644135 113.115570,310.339447 126.462830,317.903381 
	C133.351974,321.807465 140.486603,325.282532 147.333084,329.256805 
	C157.204239,334.986816 166.829956,341.144257 176.774673,346.738403 
	C178.455856,347.684113 181.623611,347.469452 183.406967,346.503326 
	C192.805588,341.411530 202.014343,335.964203 211.225342,330.532318 
	C225.620209,322.043365 239.901611,313.360382 254.351456,304.966827 
	C263.976379,299.375946 273.900452,294.299927 283.522980,288.705170 
	C291.221405,284.229065 298.568390,279.149353 306.258728,274.658417 
	C311.661041,271.503632 317.491608,269.080566 322.881256,265.906738 
	C324.377838,265.025452 325.865509,262.634094 325.870239,260.931335 
	C326.020905,206.952072 325.995117,152.972290 325.934021,98.992661 
	C325.932739,97.860458 325.541565,96.292320 324.749725,95.675987 
	C321.925598,93.477776 318.939819,91.449585 315.851410,89.636002 
	C307.919373,84.978188 299.892548,80.482071 291.916687,75.898628 
	C283.218811,70.900284 274.540375,65.868118 265.844696,60.865925 
	C256.435242,55.453106 247.066132,49.967377 237.585556,44.681843 
	C229.062134,39.929935 220.284576,35.624657 211.850586,30.724010 
	C202.283081,25.164726 192.943954,19.208647 183.569504,13.323174 
	C180.940903,11.672878 178.803070,11.237646 175.929474,13.208205 
	C169.528275,17.597818 162.953751,21.772800 156.213181,25.620665 
	C145.672028,31.638117 134.833969,37.136063 124.301422,43.167892 
	C101.023712,56.498676 77.845520,70.003555 54.656044,83.487839 
	C49.428280,86.527695 44.584831,90.404778 39.069733,92.715790 
	C35.001858,94.420372 33.605747,96.244087 33.617931,100.594444 
	C33.761189,151.741501 33.712620,202.889084 33.699631,254.036530 
	C33.699123,256.029114 33.548203,258.021667 33.183968,260.110657 
	C33.068165,260.213379 32.952358,260.316101 32.836559,260.418823 
	C33.046829,260.608368 33.257099,260.797913 33.642971,261.655579 
	C33.584423,262.108551 33.525875,262.561554 33.176067,263.135162 
	C33.349113,263.446869 33.522163,263.758606 33.903694,264.051605 
	C33.903694,264.051605 34.099010,263.976349 34.142040,264.465790 
z"/>
<path fill="#EFEEEE" opacity="1.000000" stroke="none" 
	d="
M22.462864,89.230690 
	C22.882290,104.301430 22.976742,119.599014 22.982021,134.896622 
	C22.997580,179.966232 22.977804,225.035828 22.899113,270.570984 
	C22.551088,270.179169 22.034964,269.321838 22.034882,268.464447 
	C22.029264,208.795486 22.064932,149.126511 22.462864,89.230690 
z"/>
<path fill="#343536" opacity="1.000000" stroke="none" 
	d="
M33.467327,263.014526 
	C33.525875,262.561554 33.584423,262.108551 33.619209,261.078247 
	C33.552753,260.338684 33.510059,260.176453 33.467369,260.014221 
	C33.548203,258.021667 33.699123,256.029114 33.699631,254.036530 
	C33.712620,202.889084 33.761189,151.741501 33.617931,100.594444 
	C33.605747,96.244087 35.001858,94.420372 39.069733,92.715790 
	C44.584831,90.404778 49.428280,86.527695 54.656044,83.487839 
	C77.845520,70.003555 101.023712,56.498676 124.301422,43.167892 
	C134.833969,37.136063 145.672028,31.638117 156.213181,25.620665 
	C162.953751,21.772800 169.528275,17.597818 175.929474,13.208205 
	C178.803070,11.237646 180.940903,11.672878 183.569504,13.323174 
	C192.943954,19.208647 202.283081,25.164726 211.850586,30.724010 
	C220.284576,35.624657 229.062134,39.929935 237.585556,44.681843 
	C247.066132,49.967377 256.435242,55.453106 265.844696,60.865925 
	C274.540375,65.868118 283.218811,70.900284 291.916687,75.898628 
	C299.892548,80.482071 307.919373,84.978188 315.851410,89.636002 
	C318.939819,91.449585 321.925598,93.477776 324.749725,95.675987 
	C325.541565,96.292320 325.932739,97.860458 325.934021,98.992661 
	C325.995117,152.972290 326.020905,206.952072 325.870239,260.931335 
	C325.865509,262.634094 324.377838,265.025452 322.881256,265.906738 
	C317.491608,269.080566 311.661041,271.503632 306.258728,274.658417 
	C298.568390,279.149353 291.221405,284.229065 283.522980,288.705170 
	C273.900452,294.299927 263.976379,299.375946 254.351456,304.966827 
	C239.901611,313.360382 225.620209,322.043365 211.225342,330.532318 
	C202.014343,335.964203 192.805588,341.411530 183.406967,346.503326 
	C181.623611,347.469452 178.455856,347.684113 176.774673,346.738403 
	C166.829956,341.144257 157.204239,334.986816 147.333084,329.256805 
	C140.486603,325.282532 133.351974,321.807465 126.462830,317.903381 
	C113.115570,310.339447 99.842636,302.644135 86.554466,294.976318 
	C78.318169,290.223602 70.110672,285.420929 61.889954,280.641205 
	C53.098263,275.529510 44.306229,270.418396 35.107166,264.933350 
	C34.512463,264.352081 34.312134,264.157623 34.099010,263.976349 
	C34.099010,263.976349 33.903694,264.051605 33.775986,263.789795 
	C33.587959,263.356842 33.527641,263.185699 33.467327,263.014526 
M44.434685,101.996910 
	C44.395893,102.309052 44.357101,102.621185 44.295769,103.878418 
	C44.293285,153.708801 44.339310,203.539337 44.189945,253.369278 
	C44.178818,257.082245 45.372238,259.061096 48.532204,260.711456 
	C54.319183,263.733765 59.920525,267.113495 65.579689,270.378174 
	C102.615952,291.743683 139.671585,313.075958 176.627884,334.578918 
	C179.277771,336.120758 181.038742,335.788696 183.365112,334.425812 
	C195.694672,327.202698 208.087097,320.086975 220.449875,312.920502 
	C237.248749,303.182404 254.040512,293.432098 269.974823,284.186340 
	C268.571289,281.562653 267.247314,279.266998 266.091858,276.889465 
	C263.864044,272.305328 262.162781,267.404755 259.476471,263.115570 
	C252.157837,251.430008 240.311584,242.558228 237.738342,227.900360 
	C237.602402,227.126038 236.623001,226.068069 235.867218,225.899338 
	C225.269714,223.533325 214.721069,220.670029 203.985519,219.334274 
	C199.525299,218.779312 194.081970,220.614136 190.093277,223.027512 
	C183.538528,226.993484 177.724197,232.217575 171.747330,237.094650 
	C165.805573,241.943085 159.766953,246.729904 154.295364,252.080200 
	C149.544556,256.725677 141.545242,257.861908 137.391190,253.557541 
	C127.698677,243.514236 118.186310,233.290604 108.274796,223.469162 
	C105.444908,220.665024 101.615486,217.401276 98.036339,217.133957 
	C91.059334,216.612839 83.441948,214.923141 77.111198,220.346329 
	C76.028366,221.273911 74.151756,221.274857 72.641838,221.703888 
	C72.226074,221.219009 71.810310,220.734131 71.394547,220.249252 
	C74.289505,217.104904 76.724922,213.260132 80.190926,210.986176 
	C84.969658,207.850967 90.545563,205.941299 95.744919,203.433929 
	C101.470863,200.672638 102.309677,200.970444 104.604530,207.496475 
	C105.374191,208.672241 106.143852,209.848022 107.439697,211.271835 
	C107.962578,211.839005 108.485466,212.406174 109.200958,213.633392 
	C114.758224,217.883743 120.625496,221.350983 128.694412,221.090759 
	C133.855621,225.603287 139.016830,230.115799 143.997253,234.470245 
	C149.905655,225.798264 156.016769,216.432541 162.574020,207.390320 
	C165.380997,203.519623 168.020645,200.005325 166.481705,194.374176 
	C165.368652,189.918015 164.255600,185.461853 162.980621,180.345718 
	C162.996323,179.893753 163.012039,179.441772 163.451645,178.407639 
	C162.734970,175.591507 162.018311,172.775391 161.070374,169.324585 
	C161.068726,168.875031 161.067062,168.425491 161.503418,167.300323 
	C162.056122,162.390488 162.658371,157.485580 163.145630,152.569260 
	C163.526413,148.727448 163.764496,144.871490 164.028122,140.235321 
	C165.625015,135.882751 164.665558,133.062775 160.069550,130.892471 
	C154.535324,128.279129 149.362457,124.829460 144.258987,121.405273 
	C141.748093,119.720596 139.991714,119.871239 137.596039,121.546158 
	C130.519272,126.493835 123.267273,131.190887 115.313614,136.045746 
	C114.267410,137.084320 112.328552,138.121384 112.326805,139.161713 
	C112.318436,144.130280 112.835670,149.099762 113.100899,154.799805 
	C112.648888,155.850830 112.196884,156.901855 111.603767,158.281006 
	C110.604195,157.362244 109.846779,156.666061 109.102135,155.981628 
	C105.229385,159.470062 101.939613,159.664764 99.006561,156.686996 
	C95.471916,153.098465 94.580650,146.631149 97.482719,143.749496 
	C108.499619,132.810089 119.760979,122.112602 130.617218,111.017700 
	C135.160721,106.374298 140.146805,105.108017 146.040085,106.896774 
	C154.734467,109.535744 163.356522,112.412987 172.298492,115.824425 
	C178.195465,116.893593 184.092422,117.962761 190.659561,118.835510 
	C199.650696,115.265564 204.098694,109.164375 201.793961,99.159004 
	C201.426559,97.564064 201.712540,95.830307 201.499344,94.186295 
	C199.843002,81.412926 206.820496,71.151878 219.513138,69.102356 
	C238.026978,66.112869 251.134689,79.154327 247.686661,98.793419 
	C247.514832,99.772118 246.638672,100.936134 245.761887,101.427261 
	C242.417068,103.300880 242.747055,105.814659 244.152466,108.643326 
	C244.934738,110.217834 245.741531,111.780159 246.785049,113.836121 
	C240.717499,114.602699 239.019226,118.992027 236.798706,123.032867 
	C236.020599,124.448837 234.242599,126.394951 233.061066,126.302940 
	C229.791946,126.048347 226.592346,124.863121 223.373428,124.014824 
	C221.070206,123.407845 218.488922,121.785782 216.560043,122.367760 
	C214.296539,123.050690 212.203354,125.377899 210.864609,127.511635 
	C210.333038,128.358871 211.569870,131.207214 212.776062,132.111786 
	C222.212311,139.188385 231.745193,146.148865 241.500565,152.773651 
	C242.992584,153.786865 246.094177,153.582260 247.914734,152.757080 
	C255.239243,149.437149 262.289642,145.517471 269.570648,142.094543 
	C273.389282,140.299332 275.254150,137.243103 273.617554,133.776672 
	C270.924286,128.072144 273.755829,123.726135 275.748993,119.013298 
	C275.916016,118.618340 276.277832,118.305748 276.747681,117.698135 
	C277.727203,118.963631 278.566284,120.047638 279.385681,121.106224 
	C282.435944,119.160973 288.661652,119.579353 289.963684,122.056168 
	C291.702667,125.364098 292.980255,128.458252 289.640503,132.375458 
	C282.530762,140.714508 274.667114,148.099625 265.894470,154.577194 
	C260.864227,158.291428 255.451584,161.551590 250.763184,165.648026 
	C245.522629,170.226868 240.821945,170.180573 235.026535,166.701859 
	C227.358047,162.098831 219.257629,158.215408 210.728714,153.697388 
	C204.597504,163.417511 199.914505,173.664124 202.472015,185.384247 
	C203.749390,191.237976 207.354355,195.686813 214.431458,197.573715 
	C223.915909,200.102493 232.860901,204.637527 242.064392,208.242554 
	C249.104889,211.000336 254.593933,214.965607 256.091217,223.123840 
	C256.925751,227.670929 258.507538,232.115601 260.094940,236.481964 
	C262.678497,243.588425 265.432312,250.638626 268.328400,257.623779 
	C270.163330,262.049469 272.665100,265.716919 278.521698,265.010986 
	C281.638428,264.635345 284.844025,264.997192 288.587830,265.449036 
	C290.638245,265.253540 292.696930,264.847382 294.736481,264.927734 
	C296.440369,264.994843 298.121826,265.631470 300.087646,266.401978 
	C300.087646,266.401978 300.395996,266.761597 300.403259,266.704895 
	C300.403259,266.704895 300.502319,266.749786 301.105072,266.232910 
	C303.842957,264.523987 306.580811,262.815094 309.703247,261.082764 
	C309.703247,261.082764 310.022308,260.866730 310.553070,260.843597 
	C310.781860,260.590881 311.010651,260.338165 311.114960,260.114624 
	C311.114960,260.114624 311.151367,260.237213 311.794952,260.017242 
	C312.966614,259.337738 314.138275,258.658234 315.940674,257.569824 
	C316.293182,256.180939 316.952362,254.792374 316.953888,253.403107 
	C317.006989,204.508438 317.015350,155.613647 316.920776,106.719093 
	C316.917725,105.150917 315.769257,103.584953 314.723358,101.575455 
	C314.184082,101.282104 313.644836,100.988747 313.016541,99.987587 
	C302.183563,93.889671 291.317596,87.849380 280.525879,81.679321 
	C266.865784,73.869301 253.228790,66.017311 239.654053,58.060234 
	C231.254120,53.136471 223.069550,47.843193 214.638428,42.975388 
	C207.042358,38.589703 198.882767,35.093636 191.626648,30.228401 
	C183.306290,24.649582 176.690079,22.939476 167.571182,30.083540 
	C157.425980,38.031647 145.256790,43.391697 133.987411,49.910763 
	C122.733032,56.421150 111.522850,63.008099 100.254860,69.494736 
	C87.552193,76.807281 74.782242,84.003120 62.092289,91.337502 
	C57.322899,94.094040 52.695862,97.096886 47.366764,100.066177 
	C46.508419,100.659538 45.650070,101.252892 44.882500,101.863113 
	C44.882500,101.863113 44.890903,101.771172 44.434685,101.996910 
z"/>
<path fill="#FFBA41" opacity="1.000000" stroke="none" 
	d="
M33.325668,260.062439 
	C33.510059,260.176453 33.552753,260.338684 33.531406,260.744202 
	C33.257099,260.797913 33.046829,260.608368 32.836555,260.418823 
	C32.952358,260.316101 33.068165,260.213379 33.325668,260.062439 
z"/>
<path fill="#FFBA41" opacity="1.000000" stroke="none" 
	d="
M33.321697,263.074829 
	C33.527641,263.185699 33.587959,263.356842 33.671745,263.799164 
	C33.522163,263.758606 33.349113,263.446869 33.321697,263.074829 
z"/>
<path fill="#182635" opacity="1.000000" stroke="none" 
	d="
M34.120525,264.221069 
	C34.312134,264.157623 34.512463,264.352081 34.831108,264.723114 
	C34.585281,264.948120 34.311890,264.807892 34.120525,264.221069 
z"/>
<path fill="#FBB03F" opacity="1.000000" stroke="none" 
	d="
M104.933899,207.024033 
	C102.309677,200.970444 101.470863,200.672638 95.744919,203.433929 
	C90.545563,205.941299 84.969658,207.850967 80.190926,210.986176 
	C76.724922,213.260132 74.289505,217.104904 71.394547,220.249252 
	C71.810310,220.734131 72.226074,221.219009 72.641838,221.703888 
	C74.151756,221.274857 76.028366,221.273911 77.111198,220.346329 
	C83.441948,214.923141 91.059334,216.612839 98.036339,217.133957 
	C101.615486,217.401276 105.444908,220.665024 108.274796,223.469162 
	C118.186310,233.290604 127.698677,243.514236 137.391190,253.557541 
	C141.545242,257.861908 149.544556,256.725677 154.295364,252.080200 
	C159.766953,246.729904 165.805573,241.943085 171.747330,237.094650 
	C177.724197,232.217575 183.538528,226.993484 190.093277,223.027512 
	C194.081970,220.614136 199.525299,218.779312 203.985519,219.334274 
	C214.721069,220.670029 225.269714,223.533325 235.867218,225.899338 
	C236.623001,226.068069 237.602402,227.126038 237.738342,227.900360 
	C240.311584,242.558228 252.157837,251.430008 259.476471,263.115570 
	C262.162781,267.404755 263.864044,272.305328 266.091858,276.889465 
	C267.247314,279.266998 268.571289,281.562653 269.974823,284.186340 
	C254.040512,293.432098 237.248749,303.182404 220.449875,312.920502 
	C208.087097,320.086975 195.694672,327.202698 183.365112,334.425812 
	C181.038742,335.788696 179.277771,336.120758 176.627884,334.578918 
	C139.671585,313.075958 102.615952,291.743683 65.579689,270.378174 
	C59.920525,267.113495 54.319183,263.733765 48.532204,260.711456 
	C45.372238,259.061096 44.178818,257.082245 44.189945,253.369278 
	C44.339310,203.539337 44.293285,153.708801 44.432274,103.228546 
	C44.712471,102.323997 44.819847,102.054832 44.890903,101.771172 
	C44.890903,101.771172 44.882500,101.863113 45.189781,101.869095 
	C46.332684,101.245872 47.168308,100.616661 48.003929,99.987442 
	C52.695862,97.096886 57.322899,94.094040 62.092289,91.337502 
	C74.782242,84.003120 87.552193,76.807281 100.254860,69.494736 
	C111.522850,63.008099 122.733032,56.421150 133.987411,49.910763 
	C145.256790,43.391697 157.425980,38.031647 167.571182,30.083540 
	C176.690079,22.939476 183.306290,24.649582 191.626648,30.228401 
	C198.882767,35.093636 207.042358,38.589703 214.638428,42.975388 
	C223.069550,47.843193 231.254120,53.136471 239.654053,58.060234 
	C253.228790,66.017311 266.865784,73.869301 280.525879,81.679321 
	C291.317596,87.849380 302.183563,93.889671 313.056549,100.692749 
	C313.695312,102.265091 314.294067,103.132278 314.971741,104.462326 
	C315.145508,146.978714 315.258514,189.032227 315.320312,231.085815 
	C315.333008,239.721634 315.154388,248.357697 314.716614,257.056030 
	C313.296661,258.158020 312.223999,259.197632 311.151367,260.237213 
	C311.151367,260.237213 311.114960,260.114624 310.953247,260.198181 
	C310.500427,260.431091 310.244019,260.626099 310.022308,260.866730 
	C310.022308,260.866730 309.703247,261.082764 309.134888,261.088257 
	C306.039429,261.727020 303.512390,262.360321 300.751831,262.693359 
	C296.348724,263.270813 292.179138,264.148499 288.009521,265.026184 
	C284.844025,264.997192 281.638428,264.635345 278.521698,265.010986 
	C272.665100,265.716919 270.163330,262.049469 268.328400,257.623779 
	C265.432312,250.638626 262.678497,243.588425 260.094940,236.481964 
	C258.507538,232.115601 256.925751,227.670929 256.091217,223.123840 
	C254.593933,214.965607 249.104889,211.000336 242.064392,208.242554 
	C232.860901,204.637527 223.915909,200.102493 214.431458,197.573715 
	C207.354355,195.686813 203.749390,191.237976 202.472015,185.384247 
	C199.914505,173.664124 204.597504,163.417511 210.728714,153.697388 
	C219.257629,158.215408 227.358047,162.098831 235.026535,166.701859 
	C240.821945,170.180573 245.522629,170.226868 250.763184,165.648026 
	C255.451584,161.551590 260.864227,158.291428 265.894470,154.577194 
	C274.667114,148.099625 282.530762,140.714508 289.640503,132.375458 
	C292.980255,128.458252 291.702667,125.364098 289.963684,122.056168 
	C288.661652,119.579353 282.435944,119.160973 279.385681,121.106224 
	C278.566284,120.047638 277.727203,118.963631 276.747681,117.698135 
	C276.277832,118.305748 275.916016,118.618340 275.748993,119.013298 
	C273.755829,123.726135 270.924286,128.072144 273.617554,133.776672 
	C275.254150,137.243103 273.389282,140.299332 269.570648,142.094543 
	C262.289642,145.517471 255.239243,149.437149 247.914734,152.757080 
	C246.094177,153.582260 242.992584,153.786865 241.500565,152.773651 
	C231.745193,146.148865 222.212311,139.188385 212.776062,132.111786 
	C211.569870,131.207214 210.333038,128.358871 210.864609,127.511635 
	C212.203354,125.377899 214.296539,123.050690 216.560043,122.367760 
	C218.488922,121.785782 221.070206,123.407845 223.373428,124.014824 
	C226.592346,124.863121 229.791946,126.048347 233.061066,126.302940 
	C234.242599,126.394951 236.020599,124.448837 236.798706,123.032867 
	C239.019226,118.992027 240.717499,114.602699 246.785049,113.836121 
	C245.741531,111.780159 244.934738,110.217834 244.152466,108.643326 
	C242.747055,105.814659 242.417068,103.300880 245.761887,101.427261 
	C246.638672,100.936134 247.514832,99.772118 247.686661,98.793419 
	C251.134689,79.154327 238.026978,66.112869 219.513138,69.102356 
	C206.820496,71.151878 199.843002,81.412926 201.499344,94.186295 
	C201.712540,95.830307 201.426559,97.564064 201.793961,99.159004 
	C204.098694,109.164375 199.650696,115.265564 189.986633,118.761078 
	C183.545593,117.520691 177.777481,116.354721 172.009384,115.188751 
	C163.356522,112.412987 154.734467,109.535744 146.040085,106.896774 
	C140.146805,105.108017 135.160721,106.374298 130.617218,111.017700 
	C119.760979,122.112602 108.499619,132.810089 97.482719,143.749496 
	C94.580650,146.631149 95.471916,153.098465 99.006561,156.686996 
	C101.939613,159.664764 105.229385,159.470062 109.102135,155.981628 
	C109.846779,156.666061 110.604195,157.362244 111.603767,158.281006 
	C112.196884,156.901855 112.648888,155.850830 113.361000,154.178558 
	C113.851913,149.867340 113.925102,146.158127 114.372490,142.494614 
	C114.641922,140.288300 115.493736,138.153137 116.083832,135.985992 
	C123.267273,131.190887 130.519272,126.493835 137.596039,121.546158 
	C139.991714,119.871239 141.748093,119.720596 144.258987,121.405273 
	C149.362457,124.829460 154.535324,128.279129 160.069550,130.892471 
	C164.665558,133.062775 165.625015,135.882751 163.907425,140.981949 
	C162.879623,150.477692 161.972519,159.226822 161.065399,167.975937 
	C161.067062,168.425491 161.068726,168.875031 161.182251,170.039490 
	C161.871979,173.499527 162.449860,176.244659 163.027740,178.989807 
	C163.012039,179.441772 162.996323,179.893753 163.056152,181.084442 
	C164.108917,186.207764 165.086151,190.592346 166.063400,194.976944 
	C168.020645,200.005325 165.380997,203.519623 162.574020,207.390320 
	C156.016769,216.432541 149.905655,225.798264 143.997253,234.470245 
	C139.016830,230.115799 133.855621,225.603287 128.030319,220.898682 
	C121.246933,218.128860 115.127632,215.551102 109.008347,212.973343 
	C108.485466,212.406174 107.962578,211.839005 107.060745,210.849533 
	C106.099159,209.292831 105.516525,208.158432 104.933899,207.024033 
z"/>
<path fill="#182635" opacity="1.000000" stroke="none" 
	d="
M315.063934,256.993652 
	C315.154388,248.357697 315.333008,239.721634 315.320312,231.085815 
	C315.258514,189.032227 315.145508,146.978714 315.046753,104.136841 
	C315.080170,102.904991 315.117462,102.461479 315.154724,102.017960 
	C315.769257,103.584953 316.917725,105.150917 316.920776,106.719093 
	C317.015350,155.613647 317.006989,204.508438 316.953888,253.403107 
	C316.952362,254.792374 316.293182,256.180939 315.602325,257.518402 
	C315.197266,257.309204 315.130585,257.151428 315.063934,256.993652 
z"/>
<path fill="#2B3136" opacity="1.000000" stroke="none" 
	d="
M161.284409,167.638123 
	C161.972519,159.226822 162.879623,150.477692 163.926361,141.375198 
	C163.764496,144.871490 163.526413,148.727448 163.145630,152.569260 
	C162.658371,157.485580 162.056122,162.390488 161.284409,167.638123 
z"/>
<path fill="#2B3136" opacity="1.000000" stroke="none" 
	d="
M109.104645,213.303375 
	C115.127632,215.551102 121.246933,218.128860 127.672073,220.886597 
	C120.625496,221.350983 114.758224,217.883743 109.104645,213.303375 
z"/>
<path fill="#2E3337" opacity="1.000000" stroke="none" 
	d="
M115.698723,136.015869 
	C115.493736,138.153137 114.641922,140.288300 114.372490,142.494614 
	C113.925102,146.158127 113.851913,149.867340 113.393555,153.813110 
	C112.835670,149.099762 112.318436,144.130280 112.326805,139.161713 
	C112.328552,138.121384 114.267410,137.084320 115.698723,136.015869 
z"/>
<path fill="#2A3136" opacity="1.000000" stroke="none" 
	d="
M172.153931,115.506592 
	C177.777481,116.354721 183.545593,117.520691 189.651550,118.859291 
	C184.092422,117.962761 178.195465,116.893593 172.153931,115.506592 
z"/>
<path fill="#2D3337" opacity="1.000000" stroke="none" 
	d="
M288.298676,265.237610 
	C292.179138,264.148499 296.348724,263.270813 300.618591,262.989563 
	C300.416962,264.395966 300.115082,265.205933 299.813202,266.015869 
	C298.121826,265.631470 296.440369,264.994843 294.736481,264.927734 
	C292.696930,264.847382 290.638245,265.253540 288.298676,265.237610 
z"/>
<path fill="#2C3236" opacity="1.000000" stroke="none" 
	d="
M166.272552,194.675568 
	C165.086151,190.592346 164.108917,186.207764 163.137115,181.414429 
	C164.255600,185.461853 165.368652,189.918015 166.272552,194.675568 
z"/>
<path fill="#2C3236" opacity="1.000000" stroke="none" 
	d="
M163.239685,178.698730 
	C162.449860,176.244659 161.871979,173.499527 161.297882,170.356812 
	C162.018311,172.775391 162.734970,175.591507 163.239685,178.698730 
z"/>
<path fill="#FDB941" opacity="1.000000" stroke="none" 
	d="
M299.950439,266.208923 
	C300.115082,265.205933 300.416962,264.395966 300.852112,263.289795 
	C303.512390,262.360321 306.039429,261.727020 308.942566,261.099976 
	C306.580811,262.815094 303.842957,264.523987 300.777405,266.487366 
	C300.449707,266.741821 300.395996,266.761597 300.395996,266.761597 
	C300.395996,266.761597 300.087646,266.401978 299.950439,266.208923 
z"/>
<path fill="#2B3136" opacity="1.000000" stroke="none" 
	d="
M104.769211,207.260254 
	C105.516525,208.158432 106.099159,209.292831 106.797653,210.725510 
	C106.143852,209.848022 105.374191,208.672241 104.769211,207.260254 
z"/>
<path fill="#FDB941" opacity="1.000000" stroke="none" 
	d="
M314.716614,257.056030 
	C315.130585,257.151428 315.197266,257.309204 315.286987,257.722839 
	C314.138275,258.658234 312.966614,259.337738 311.473145,260.127228 
	C312.223999,259.197632 313.296661,258.158020 314.716614,257.056030 
z"/>
<path fill="#FDB941" opacity="1.000000" stroke="none" 
	d="
M314.939026,101.796707 
	C315.117462,102.461479 315.080170,102.904991 314.967834,103.673981 
	C314.294067,103.132278 313.695312,102.265091 313.101074,101.046646 
	C313.644836,100.988747 314.184082,101.282104 314.939026,101.796707 
z"/>
<path fill="#FEBA41" opacity="1.000000" stroke="none" 
	d="
M47.685349,100.026810 
	C47.168308,100.616661 46.332684,101.245872 45.144394,101.860672 
	C45.650070,101.252892 46.508419,100.659538 47.685349,100.026810 
z"/>
<path fill="#FEBA41" opacity="1.000000" stroke="none" 
	d="
M44.662796,101.884041 
	C44.819847,102.054832 44.712471,102.323997 44.443542,102.755997 
	C44.357101,102.621185 44.395893,102.309052 44.662796,101.884041 
z"/>
<path fill="#FDB941" opacity="1.000000" stroke="none" 
	d="
M310.287689,260.855164 
	C310.244019,260.626099 310.500427,260.431091 311.015472,260.183594 
	C311.010651,260.338165 310.781860,260.590881 310.287689,260.855164 
z"/>
<path fill="#2D3337" opacity="1.000000" stroke="none" 
	d="
M300.399628,266.733246 
	C300.395996,266.761597 300.449707,266.741821 300.476013,266.745789 
	C300.502319,266.749786 300.403259,266.704895 300.399628,266.733246 
z"/>
</svg>