<?xml version="1.0" standalone="no"?>
<!DOCTYPE svg PUBLIC "-//W3C//DTD SVG 20010904//EN"
 "http://www.w3.org/TR/2001/REC-SVG-20010904/DTD/svg10.dtd">
<svg version="1.0" xmlns="http://www.w3.org/2000/svg"
 width="300.000000pt" height="159.000000pt" viewBox="0 0 300.000000 159.000000"
 preserveAspectRatio="xMidYMid meet">

<g transform="translate(0.000000,159.000000) scale(0.100000,-0.100000)"
fill="white" stroke="none">
<path d="M1589 1567 c-41 -27 -63 -69 -53 -100 3 -12 38 -52 75 -88 38 -36 69
-73 69 -82 0 -25 -38 -21 -72 9 -63 52 -177 94 -257 94 -24 0 -28 3 -24 23 3
13 -2 39 -10 59 -25 61 -47 65 -362 73 l-280 7 -35 -24 c-70 -48 -66 -100 16
-179 30 -30 62 -67 70 -82 18 -33 11 -59 -44 -176 -37 -79 -52 -80 -52 -4 0
28 10 62 31 101 36 70 33 98 -17 142 -34 30 -36 30 -147 30 -62 0 -184 -3
-272 -7 l-160 -6 -32 -33 c-62 -61 -41 -123 67 -198 43 -30 87 -68 98 -83 52
-74 242 -429 262 -492 48 -150 8 -255 -134 -354 -14 -9 -31 -35 -37 -58 -16
-52 4 -97 54 -124 l35 -19 287 64 c280 62 287 64 315 97 53 59 35 130 -41 168
-25 13 -58 38 -73 55 -25 30 -26 37 -26 145 0 101 3 121 26 174 15 33 30 59
34 56 4 -3 11 -22 15 -42 13 -71 73 -181 135 -243 83 -86 167 -124 282 -128
63 -3 101 1 138 13 78 26 167 91 216 158 l44 59 0 -59 c0 -84 -24 -165 -80
-271 -28 -51 -50 -101 -50 -111 0 -27 43 -76 80 -91 25 -10 66 -11 205 -1 96
6 249 15 341 18 146 5 169 9 197 27 51 35 59 59 52 162 l-7 92 94 4 c76 4 104
10 153 33 79 38 181 140 223 223 88 178 80 402 -22 575 -89 154 -281 248 -439
217 -68 -13 -138 -45 -185 -85 -27 -23 -38 -26 -94 -23 l-63 3 29 26 c15 15
46 32 67 39 51 17 70 40 76 93 6 50 -15 100 -48 117 -12 7 -127 15 -272 20
-367 13 -359 14 -398 -13z m418 -26 c246 -8 263 -13 263 -73 0 -45 -16 -65
-68 -88 -57 -26 -88 -53 -113 -102 l-19 -38 100 0 101 0 53 40 c73 55 126 73
222 74 73 1 86 -2 156 -37 363 -179 335 -788 -42 -922 -48 -17 -145 -23 -198
-11 l-32 8 2 -126 c3 -108 1 -127 -14 -143 -15 -14 -52 -19 -245 -29 -126 -7
-283 -16 -349 -20 -116 -7 -123 -6 -153 15 -17 12 -31 28 -31 34 0 7 22 57 50
112 71 141 81 191 78 376 l-3 154 -28 -75 c-67 -178 -182 -284 -333 -309 -122
-19 -236 22 -328 119 -84 88 -122 175 -140 324 l-12 89 -63 -133 -63 -133 4
-128 c4 -148 12 -166 93 -211 56 -30 75 -52 75 -84 0 -52 -21 -60 -305 -124
-148 -33 -280 -58 -292 -55 -13 3 -30 16 -39 30 -24 37 -4 83 50 116 77 47
136 158 136 256 0 76 -47 190 -166 405 -120 215 -149 251 -257 325 -28 19 -49
43 -53 58 -7 30 10 71 35 80 9 4 127 9 263 12 217 5 250 4 272 -10 39 -26 40
-50 6 -113 -39 -73 -40 -134 -5 -204 14 -28 27 -50 30 -50 8 0 102 193 120
248 22 69 12 94 -72 178 -71 71 -77 93 -31 127 25 19 37 19 304 12 273 -7 278
-8 301 -31 28 -28 29 -63 3 -97 -11 -14 -20 -27 -20 -29 0 -2 42 -4 93 -3 80
0 100 -4 150 -27 32 -15 76 -41 97 -58 32 -25 47 -30 95 -30 54 0 56 1 50 23
-16 50 -61 121 -92 141 -115 78 -84 146 67 145 41 0 175 -4 297 -8z"/>
<path d="M1644 1488 c-4 -6 2 -17 12 -25 68 -49 127 -144 141 -227 l6 -36 -98
0 c-95 0 -97 1 -138 34 -67 54 -105 69 -188 74 -91 5 -151 -12 -220 -62 -59
-43 -123 -140 -149 -223 -24 -77 -27 -212 -6 -288 58 -219 251 -353 431 -300
179 52 291 224 287 440 -1 50 -3 101 -4 114 -3 21 4 28 44 45 26 11 50 17 53
14 3 -3 8 -130 11 -284 7 -330 1 -373 -75 -529 -27 -55 -46 -103 -43 -106 4
-4 90 0 192 7 102 8 252 18 334 22 l150 7 -3 154 c-2 128 0 153 11 144 29 -24
129 -45 184 -38 194 24 334 211 334 446 0 199 -108 372 -265 426 -33 11 -69
14 -123 11 -84 -5 -136 -26 -196 -78 l-34 -30 -145 0 -145 0 10 38 c23 86 73
146 158 190 28 15 53 32 53 37 3 13 -102 21 -360 28 -149 4 -215 3 -219 -5z
m854 -281 c2 -10 -15 -38 -38 -65 -23 -26 -60 -82 -81 -124 -22 -43 -46 -78
-53 -78 -8 0 -20 16 -26 35 -25 76 24 187 104 236 38 24 89 21 94 -4z m-1169
-1 c9 -11 2 -25 -35 -67 -25 -30 -62 -87 -81 -127 -20 -40 -40 -75 -46 -79
-23 -14 -39 31 -35 99 3 57 8 73 34 105 58 72 134 104 163 69z m485 -62 c14
-36 6 -49 -42 -65 -26 -9 -54 -19 -62 -22 -11 -5 -22 8 -42 48 l-27 55 83 0
c67 0 85 -3 90 -16z m415 -43 l-30 -59 -45 25 c-27 15 -67 27 -104 30 -58 6
-60 7 -60 34 l0 29 134 0 134 0 -29 -59z m-101 -65 c56 -29 60 -38 49 -108
-17 -113 22 -265 89 -354 34 -45 35 -46 18 -72 -54 -87 -99 -112 -197 -112
l-73 0 -12 308 c-7 169 -12 320 -12 336 l0 29 54 -6 c30 -3 67 -12 84 -21z"/>
<path d="M2046 883 c3 -65 9 -192 12 -283 l7 -165 45 -2 c48 -3 66 7 107 61
22 28 22 29 4 55 -63 89 -92 196 -92 332 l0 98 -37 11 c-20 5 -40 10 -44 10
-4 0 -5 -53 -2 -117z m109 -297 l35 -70 -22 -23 c-12 -13 -32 -23 -45 -23 -22
0 -23 4 -23 63 0 34 -2 100 -5 147 l-5 85 15 -55 c8 -30 31 -86 50 -124z"/>
<path d="M697 1463 c-4 -6 17 -32 44 -59 67 -65 93 -115 87 -169 -6 -49 -55
-166 -122 -288 l-48 -89 -30 29 c-16 15 -43 56 -60 91 -40 81 -41 146 -4 227
16 35 23 62 18 67 -15 15 -487 -4 -487 -19 0 -6 32 -34 72 -62 87 -61 100 -78
203 -261 177 -313 205 -386 198 -509 -4 -62 -11 -88 -38 -139 -30 -58 -91
-125 -135 -149 -11 -6 -16 -17 -12 -26 6 -17 -25 -23 330 58 104 24 193 47
199 53 7 7 -8 21 -45 45 -95 61 -101 77 -105 253 l-3 151 99 224 c55 123 116
252 136 287 54 91 126 174 190 216 31 20 56 41 56 46 0 15 -50 19 -301 25
-140 4 -239 3 -242 -2z"/>
</g>
</svg>
